# Blender v2.83.4 OBJ File: ''
# www.blender.org
o Cube.001
v -0.083992 -0.485736 0.384470
v 0.084516 -0.907046 0.248908
v 0.086801 -0.485736 0.384470
v -0.383052 0.485045 0.084633
v -0.208798 0.826586 -0.085568
v -0.383052 0.485045 -0.084418
v -0.213777 -0.793035 0.213875
v -0.214567 -0.499344 0.317915
v -0.319032 -0.499344 0.213450
v 0.029969 -1.284492 -0.029871
v -0.029988 -1.284492 0.030086
v -0.029988 -1.284492 -0.029871
v -0.385587 -0.485736 0.082875
v -0.245680 -0.907046 -0.084418
v -0.245680 -0.907046 0.084633
v 0.084516 0.191130 -0.433245
v -0.086961 -0.185220 -0.445686
v -0.084535 0.191130 -0.433245
v -0.383052 0.191130 -0.205877
v -0.211908 -0.185220 -0.393931
v -0.394048 -0.185220 -0.211791
v 0.394030 -0.185220 0.212006
v 0.205975 0.191130 0.383150
v 0.211889 -0.185220 0.394147
v -0.394048 -0.185220 0.212006
v -0.205994 0.191130 0.383150
v -0.383052 0.191130 0.206092
v -0.084535 0.485045 -0.382935
v 0.085666 0.826586 -0.208681
v 0.084516 0.485045 -0.382935
v 0.216668 0.711022 0.216785
v 0.213758 0.498515 0.317274
v 0.317157 0.498515 0.213875
v 0.084516 0.485045 0.383150
v -0.085685 0.826586 0.208896
v -0.084535 0.485045 0.383150
v -0.216687 0.711022 -0.216570
v -0.213777 0.498515 -0.317059
v -0.317176 0.498515 -0.213660
v -0.445803 -0.185220 -0.086844
v -0.433362 0.191130 0.084633
v -0.433362 0.191130 -0.084418
v 0.217376 -0.499344 -0.322957
v 0.321840 -0.499344 -0.218493
v 0.213758 -0.793035 -0.213660
v -0.317176 0.498515 0.213875
v -0.213777 0.498515 0.317274
v -0.216687 0.711022 0.216785
v 0.213758 -0.793035 0.213875
v 0.321840 -0.499344 0.213450
v 0.217376 -0.499344 0.317915
v 0.383033 0.485045 -0.084418
v 0.208779 0.826586 0.085783
v 0.383033 0.485045 0.084633
v 0.086942 -0.185220 0.445901
v -0.084535 0.191130 0.433461
v -0.086961 -0.185220 0.445901
v 0.433344 0.191130 -0.084418
v 0.445784 -0.185220 0.087059
v 0.445784 -0.185220 -0.086844
v 0.213758 0.498515 -0.317059
v 0.216668 0.711022 -0.216570
v 0.317157 0.498515 -0.213660
v 0.051857 0.949558 0.051974
v -0.051876 0.949558 -0.051759
v -0.051876 0.949558 0.051974
v 0.388396 -0.485736 0.082875
v 0.245045 -0.907046 -0.084418
v 0.388396 -0.485736 -0.087918
v -0.319032 -0.499344 -0.218493
v -0.214567 -0.499344 -0.322957
v -0.213777 -0.793035 -0.213660
v 0.394030 -0.185220 -0.211791
v 0.205975 0.191130 -0.382935
v 0.383033 0.191130 -0.205877
v 0.086801 -0.485736 -0.389513
v 0.189271 -0.194401 -0.394973
v 0.084516 -0.907046 -0.241625
v -0.385587 -0.485736 -0.087918
v -0.083992 -0.485736 -0.389513
v -0.084535 -0.907046 -0.241625
v 0.245045 -0.907046 0.084633
v -0.084535 -0.907046 0.248908
v -0.211908 -0.185220 0.394147
v -0.445803 -0.185220 0.087059
v 0.208779 0.826586 -0.085568
v -0.085685 0.826586 -0.208681
v -0.205994 0.191130 -0.382935
v 0.085666 0.826586 0.208896
v 0.383033 0.191130 0.206092
v 0.433344 0.191130 0.084633
v -0.208798 0.826586 0.085783
v 0.086942 -0.185220 -0.445686
v 0.029969 -1.284492 0.030086
v 0.051857 0.949558 -0.051759
v 0.084516 0.191130 0.433461
vt 0.475619 0.801072
vt 0.524381 0.698928
vt 0.524381 0.801072
vt 0.190584 0.649381
vt 0.139512 0.600619
vt 0.190584 0.600619
vt 0.438339 0.686661
vt 0.438339 0.716486
vt 0.408514 0.686661
vt 0.524381 0.600619
vt 0.475619 0.649381
vt 0.475619 0.600619
vt 0.323928 0.649381
vt 0.426072 0.600619
vt 0.426072 0.649381
vt 0.524381 0.350619
vt 0.475619 0.399381
vt 0.475619 0.350619
vt 0.225619 0.565584
vt 0.274381 0.514512
vt 0.274381 0.565584
vt 0.725619 0.684416
vt 0.774381 0.735488
vt 0.725619 0.735488
vt 0.274381 0.684416
vt 0.225619 0.735488
vt 0.225619 0.684416
vt 0.475619 0.301072
vt 0.524381 0.198928
vt 0.524381 0.301072
vt 0.561661 0.063339
vt 0.561661 0.033514
vt 0.591486 0.063339
vt 0.524381 0.934416
vt 0.475619 0.985488
vt 0.475619 0.934416
vt 0.438339 0.186661
vt 0.438339 0.216486
vt 0.408514 0.186661
vt 0.274381 0.600619
vt 0.225619 0.649381
vt 0.225619 0.600619
vt 0.561661 0.436661
vt 0.591486 0.436661
vt 0.561661 0.466486
vt 0.188339 0.686661
vt 0.188339 0.716486
vt 0.158514 0.686661
vt 0.561661 0.686661
vt 0.591486 0.686661
vt 0.561661 0.716486
vt 0.809416 0.600619
vt 0.860488 0.649381
vt 0.809416 0.649381
vt 0.524381 0.850619
vt 0.475619 0.899381
vt 0.475619 0.850619
vt 0.774381 0.600619
vt 0.725619 0.649381
vt 0.725619 0.600619
vt 0.561661 0.313339
vt 0.561661 0.283514
vt 0.591486 0.313339
vt 0.524381 0.100619
vt 0.475619 0.149381
vt 0.475619 0.100619
vt 0.676072 0.649381
vt 0.573928 0.600619
vt 0.676072 0.600619
vt 0.311661 0.563339
vt 0.311661 0.533514
vt 0.341486 0.563339
vt 0.725619 0.565584
vt 0.774381 0.514512
vt 0.774381 0.565584
vt 0.524381 0.448928
vt 0.544904 0.419904
vt 0.544904 0.470175
vt 0.705096 0.580096
vt 0.705096 0.554961
vt 0.524381 0.551072
vt 0.544904 0.580096
vt 0.524381 0.580096
vt 0.323928 0.600619
vt 0.294904 0.580096
vt 0.345175 0.580096
vt 0.294904 0.500000
vt 0.294904 0.525135
vt 0.455096 0.580096
vt 0.455096 0.600619
vt 0.544904 0.669904
vt 0.544904 0.720175
vt 0.705096 0.669904
vt 0.654825 0.669904
vt 0.544904 0.830096
vt 0.524381 0.830096
vt 0.455096 0.669904
vt 0.404825 0.669904
vt 0.455096 0.830096
vt 0.455096 0.779825
vt 0.294904 0.669904
vt 0.294904 0.649381
vt 0.794904 0.500000
vt 0.794904 0.525135
vt 0.544904 0.169904
vt 0.544904 0.220175
vt 0.794904 0.580096
vt 0.774381 0.580096
vt 0.125000 0.580096
vt 0.150135 0.580096
vt 0.455096 0.330096
vt 0.455096 0.279825
vt 0.205096 0.580096
vt 0.205096 0.600619
vt 0.875000 0.669904
vt 0.849865 0.669904
vt 0.544904 0.919904
vt 0.544904 0.945040
vt 0.794904 0.669904
vt 0.794904 0.649381
vt 0.205096 0.750000
vt 0.205096 0.724865
vt 0.139512 0.649381
vt 0.125000 0.669904
vt 0.125000 0.649381
vt 0.544904 0.529825
vt 0.705096 0.525135
vt 0.725619 0.514512
vt 0.595175 0.580096
vt 0.654825 0.580096
vt 0.404825 0.580096
vt 0.475619 0.448928
vt 0.455096 0.529825
vt 0.455096 0.470175
vt 0.544904 0.779825
vt 0.595175 0.669904
vt 0.573928 0.649381
vt 0.705096 0.724865
vt 0.705096 0.695039
vt 0.345175 0.669904
vt 0.455096 0.720175
vt 0.475619 0.698928
vt 0.294904 0.724865
vt 0.274381 0.735488
vt 0.794904 0.554961
vt 0.544904 0.279825
vt 0.849865 0.580096
vt 0.860488 0.600619
vt 0.179961 0.580096
vt 0.455096 0.220175
vt 0.475619 0.198928
vt 0.205096 0.525135
vt 0.225619 0.514512
vt 0.820040 0.669904
vt 0.544904 0.974865
vt 0.524381 0.985488
vt 0.774381 0.684416
vt 0.794904 0.724865
vt 0.455096 0.974865
vt 0.455096 0.945039
vt 0.455096 0.149381
vt 0.455096 0.100619
vt 0.455096 0.399381
vt 0.455096 0.350619
vt 0.524381 0.399381
vt 0.524381 0.080096
vt 0.524381 0.649381
vt 0.524381 0.149381
vt 0.774381 0.649381
vt 0.524381 0.899381
vt 0.544904 0.850619
vt 0.544904 0.899381
vt 0.455096 0.850619
vt 0.544904 0.100619
vt 0.544904 0.149381
vt 0.544904 0.350619
vt 0.544904 0.399381
vt 0.274381 0.649381
vt 0.524381 0.419904
vt 0.725619 0.580096
vt 0.294904 0.600619
vt 0.274381 0.500000
vt 0.524381 0.669904
vt 0.705096 0.649381
vt 0.455096 0.649381
vt 0.475619 0.830096
vt 0.774381 0.500000
vt 0.524381 0.169904
vt 0.125000 0.600619
vt 0.475619 0.330096
vt 0.875000 0.649381
vt 0.524381 0.919904
vt 0.225619 0.750000
vt 0.150135 0.669904
vt 0.475619 0.551072
vt 0.294904 0.695040
vt 0.820040 0.580096
vt 0.205096 0.554961
vt 0.794904 0.695040
vt 0.475619 0.080096
vt 0.455096 0.899381
vn 0.0000 -0.3063 0.9519
vn -0.8908 0.4545 0.0000
vn -0.6856 -0.2447 0.6856
vn 0.0000 -1.0000 -0.0000
vn -0.9490 -0.3152 0.0000
vn 0.0000 0.0330 -0.9995
vn -0.7067 0.0318 -0.7068
vn -0.7068 0.0318 -0.7068
vn 0.7068 0.0318 0.7068
vn 0.7067 0.0318 0.7068
vn -0.7068 0.0318 0.7067
vn -0.7068 0.0318 0.7068
vn 0.0000 0.4545 -0.8908
vn 0.6725 0.3088 0.6725
vn 0.0000 0.4545 0.8908
vn -0.6725 0.3088 -0.6725
vn -0.9995 0.0330 0.0000
vn 0.6823 -0.2623 -0.6823
vn -0.6725 0.3088 0.6725
vn 0.6845 -0.2509 0.6845
vn 0.8908 0.4545 0.0000
vn 0.0000 0.0330 0.9995
vn 0.9995 0.0330 0.0000
vn 0.6725 0.3088 -0.6725
vn 0.0000 1.0000 -0.0000
vn 0.9467 -0.3221 0.0000
vn -0.6835 -0.2562 -0.6835
vn 0.7068 0.0318 -0.7068
vn 0.4274 -0.1670 -0.8885
vn 0.4321 -0.1686 -0.8859
vn 0.4335 -0.1691 -0.8851
vn 0.8821 -0.1936 -0.4294
vn 0.6253 -0.4486 -0.6385
vn -0.8810 -0.2013 -0.4281
vn -0.4291 -0.1956 -0.8818
vn -0.6240 -0.4490 -0.6396
vn 0.6144 -0.5120 0.6004
vn 0.8811 -0.2005 0.4282
vn 0.3760 -0.1857 0.9078
vn -0.6137 -0.5107 0.6021
vn -0.4266 -0.2099 0.8798
vn -0.9076 -0.1871 0.3759
vn 0.4320 0.1785 -0.8840
vn 0.5388 0.6476 -0.5388
vn 0.9125 0.1562 -0.3780
vn -0.5388 0.6476 -0.5388
vn -0.4320 0.1785 -0.8840
vn -0.9125 0.1562 -0.3780
vn 0.5388 0.6476 0.5388
vn 0.4320 0.1785 0.8840
vn 0.9125 0.1562 0.3780
vn -0.8840 0.1785 0.4320
vn -0.4320 0.1785 0.8840
vn -0.4764 0.7389 0.4764
vn 0.4460 -0.2986 -0.8438
vn 0.6653 -0.1130 -0.7380
vn 0.8567 -0.3219 -0.4031
vn -0.8425 -0.2836 -0.4581
vn -0.6989 -0.1520 -0.6989
vn -0.4035 -0.3201 -0.8571
vn 0.4060 -0.3096 0.8598
vn 0.8433 -0.2850 0.4556
vn 0.6983 -0.1573 0.6983
vn -0.8603 -0.3077 0.4064
vn -0.4667 -0.2703 0.8421
vn -0.6976 -0.1634 0.6976
vn 0.7009 0.1325 -0.7009
vn 0.3855 0.3901 -0.8362
vn 0.8421 0.4286 -0.3273
vn -0.8362 0.3901 -0.3855
vn -0.3273 0.4286 -0.8421
vn -0.7009 0.1325 -0.7009
vn 0.8362 0.3901 0.3855
vn 0.3273 0.4286 0.8421
vn 0.7009 0.1325 0.7009
vn -0.8421 0.4286 0.3273
vn -0.7009 0.1325 0.7009
vn -0.3855 0.3901 0.8362
vn -0.9857 0.1687 0.0000
vn -0.6168 0.7871 0.0000
vn -0.9234 0.0330 -0.3825
vn -0.3825 0.0330 -0.9234
vn 0.0000 -0.4893 -0.8721
vn 0.0000 -0.1837 -0.9830
vn 0.0000 0.1687 0.9857
vn -0.0000 0.7871 0.6168
vn 0.0000 -0.2003 0.9797
vn 0.0000 -0.5016 0.8651
vn 0.0000 0.1687 -0.9857
vn 0.0000 0.7871 -0.6168
vn 0.9234 0.0330 0.3825
vn 0.3825 0.0330 0.9234
vn 0.9823 -0.1876 0.0000
vn 0.8688 -0.4951 0.0000
vn -0.9234 0.0330 0.3825
vn -0.3825 0.0330 0.9234
vn 0.9857 0.1687 0.0000
vn 0.6168 0.7871 0.0000
vn 0.9234 0.0330 -0.3825
vn 0.4447 0.0087 -0.8957
vn -0.9805 -0.1965 0.0000
vn -0.8682 -0.4962 0.0000
vn 0.0000 -0.3312 -0.9436
vn 0.6669 -0.0056 -0.7451
vn 0.4258 -0.1664 -0.8894
vn 0.9100 -0.1724 -0.3769
vn 0.5952 -0.5256 -0.6078
vn -0.9087 -0.1807 -0.3764
vn -0.3769 -0.1738 -0.9098
vn -0.5945 -0.5245 -0.6094
vn 0.6375 -0.4533 0.6230
vn 0.9090 -0.1788 0.3765
vn 0.4272 -0.2062 0.8803
vn -0.6362 -0.4537 0.6240
vn -0.3758 -0.1892 0.9072
vn -0.8800 -0.2082 0.4269
vn 0.3780 0.1562 -0.9125
vn 0.4764 0.7389 -0.4764
vn 0.8840 0.1785 -0.4320
vn -0.4764 0.7389 -0.4764
vn -0.3780 0.1562 -0.9125
vn -0.8840 0.1785 -0.4320
vn 0.4764 0.7389 0.4764
vn 0.3780 0.1562 0.9125
vn 0.8840 0.1785 0.4320
vn -0.9125 0.1562 0.3780
vn -0.3780 0.1562 0.9125
vn -0.5388 0.6476 0.5388
vn 0.4027 -0.3236 -0.8562
vn 0.6995 -0.1458 -0.6995
vn 0.8400 -0.2896 -0.4588
vn -0.8586 -0.3144 -0.4049
vn -0.4443 -0.2962 -0.8455
vn 0.4685 -0.2729 0.8403
vn 0.8584 -0.3153 0.4047
vn -0.8458 -0.2790 0.4549
vn -0.4068 -0.3060 0.8607
vn 0.3273 0.4286 -0.8421
vn 0.8362 0.3901 -0.3855
vn -0.8421 0.4286 -0.3273
vn -0.3855 0.3901 -0.8362
vn 0.8421 0.4286 0.3273
vn 0.3855 0.3901 0.8362
vn -0.8362 0.3901 0.3855
vn -0.3273 0.4286 0.8421
vn 0.3825 0.0330 -0.9234
s 1
f 1/1/1 2/2/1 3/3/1
f 4/4/2 5/5/2 6/6/2
f 7/7/3 8/8/3 9/9/3
f 10/10/4 11/11/4 12/12/4
f 13/13/5 14/14/5 15/15/5
f 16/16/6 17/17/6 18/18/6
f 19/19/7 20/20/8 21/21/8
f 22/22/9 23/23/10 24/24/9
f 25/25/11 26/26/11 27/27/12
f 28/28/13 29/29/13 30/30/13
f 31/31/14 32/32/14 33/33/14
f 34/34/15 35/35/15 36/36/15
f 37/37/16 38/38/16 39/39/16
f 40/40/17 41/41/17 42/42/17
f 43/43/18 44/44/18 45/45/18
f 46/46/19 47/47/19 48/48/19
f 49/49/20 50/50/20 51/51/20
f 52/52/21 53/53/21 54/54/21
f 55/55/22 56/56/22 57/57/22
f 58/58/23 59/59/23 60/60/23
f 61/61/24 62/62/24 63/63/24
f 64/64/25 65/65/25 66/66/25
f 67/67/26 68/68/26 69/69/26
f 70/70/27 71/71/27 72/72/27
f 73/73/28 74/74/28 75/75/28
f 76/76/29 77/77/30 43/78/31
f 73/73/32 69/79/32 44/80/32
f 78/81/33 68/82/33 10/83/33
f 79/84/34 21/85/34 70/86/34
f 20/20/35 80/87/35 71/88/35
f 14/14/36 81/89/36 12/90/36
f 2/2/37 82/91/37 49/92/37
f 67/67/38 22/93/38 50/94/38
f 3/3/39 24/95/39 55/96/39
f 15/15/40 83/97/40 7/98/40
f 1/1/41 84/99/41 8/100/41
f 13/13/42 25/101/42 85/102/42
f 74/74/43 30/103/43 61/104/43
f 29/29/44 86/105/44 62/106/44
f 75/75/45 52/107/45 58/108/45
f 5/5/46 87/109/46 37/110/46
f 28/28/47 88/111/47 38/112/47
f 6/6/48 19/113/48 42/114/48
f 53/53/49 89/115/49 31/116/49
f 34/34/50 23/117/50 32/118/50
f 54/54/51 90/119/51 91/120/51
f 4/4/52 27/27/52 46/46/52
f 26/26/53 36/121/53 47/122/53
f 92/123/54 35/124/54 66/125/54
f 76/76/55 45/126/55 78/81/55
f 73/73/56 43/127/56 77/128/56
f 69/69/57 45/129/57 44/130/57
f 79/84/58 72/131/58 14/14/58
f 20/20/59 70/70/59 21/21/59
f 80/132/60 72/133/60 71/134/60
f 3/3/61 49/92/61 51/135/61
f 67/67/62 49/136/62 82/137/62
f 22/22/63 51/138/63 50/139/63
f 13/13/64 7/98/64 9/140/64
f 1/1/65 7/141/65 83/142/65
f 25/25/66 8/143/66 84/144/66
f 74/74/67 63/145/67 75/75/67
f 30/30/68 62/106/68 61/146/68
f 52/52/69 62/147/69 86/148/69
f 6/6/70 37/110/70 39/149/70
f 28/28/71 37/150/71 87/151/71
f 19/19/72 38/152/72 88/153/72
f 54/54/73 31/116/73 33/154/73
f 34/34/74 31/155/74 89/156/74
f 90/157/75 32/158/75 23/23/75
f 4/4/76 48/48/76 92/123/76
f 26/26/77 46/46/77 27/27/77
f 36/36/78 48/159/78 47/160/78
f 41/41/79 6/6/79 42/42/79
f 66/66/80 5/161/80 92/162/80
f 42/42/81 21/21/81 40/40/81
f 18/18/82 20/163/82 88/164/82
f 12/12/83 78/81/83 10/10/83
f 93/165/84 80/132/84 17/17/84
f 56/56/85 34/34/85 36/36/85
f 66/66/86 89/166/86 64/64/86
f 55/55/87 1/1/87 3/3/87
f 94/167/88 83/142/88 11/11/88
f 16/16/89 28/28/89 30/30/89
f 95/168/90 87/151/90 65/65/90
f 91/169/91 22/22/91 59/59/91
f 96/170/92 24/171/92 23/172/92
f 60/60/93 67/67/93 69/69/93
f 10/10/94 82/137/94 94/167/94
f 41/41/95 25/25/95 27/27/95
f 56/56/96 84/173/96 57/57/96
f 58/58/97 54/54/97 91/169/97
f 95/168/98 53/174/98 86/175/98
f 58/58/99 73/73/99 75/75/99
f 93/165/100 74/176/100 77/177/100
f 40/40/101 13/13/101 85/178/101
f 11/11/102 14/14/102 12/12/102
f 78/81/103 80/132/103 76/76/103
f 1/1/1 83/142/1 2/2/1
f 4/4/2 92/123/2 5/5/2
f 10/10/4 94/167/4 11/11/4
f 13/13/5 79/84/5 14/14/5
f 16/16/6 93/165/6 17/17/6
f 19/19/7 88/153/7 20/20/8
f 22/22/9 90/157/9 23/23/10
f 25/25/11 84/144/11 26/26/11
f 28/28/13 87/151/13 29/29/13
f 34/34/15 89/156/15 35/35/15
f 40/40/17 85/178/17 41/41/17
f 52/52/21 86/148/21 53/53/21
f 55/55/22 96/170/22 56/56/22
f 58/58/23 91/169/23 59/59/23
f 64/64/25 95/168/25 65/65/25
f 67/67/26 82/137/26 68/68/26
f 73/73/104 77/128/104 74/74/104
f 76/76/29 93/179/105 77/77/30
f 73/73/106 60/180/106 69/79/106
f 78/81/107 45/126/107 68/82/107
f 79/84/108 40/181/108 21/85/108
f 20/20/109 17/182/109 80/87/109
f 14/14/110 72/131/110 81/89/110
f 2/2/111 94/183/111 82/91/111
f 67/67/112 59/184/112 22/93/112
f 3/3/113 51/135/113 24/95/113
f 15/15/114 11/185/114 83/97/114
f 1/1/115 57/186/115 84/99/115
f 13/13/116 9/140/116 25/101/116
f 74/74/117 16/187/117 30/103/117
f 29/29/118 95/188/118 86/105/118
f 75/75/119 63/145/119 52/107/119
f 5/5/120 65/189/120 87/109/120
f 28/28/121 18/190/121 88/111/121
f 6/6/122 39/149/122 19/113/122
f 53/53/123 64/191/123 89/115/123
f 34/34/124 96/192/124 23/117/124
f 54/54/125 33/154/125 90/119/125
f 4/4/126 41/41/126 27/27/126
f 26/26/127 56/193/127 36/121/127
f 92/123/128 48/194/128 35/124/128
f 76/76/129 43/78/129 45/126/129
f 73/73/130 44/80/130 43/127/130
f 69/69/131 68/68/131 45/129/131
f 79/84/132 70/86/132 72/131/132
f 20/20/59 71/71/59 70/70/59
f 80/132/133 81/195/133 72/133/133
f 3/3/134 2/2/134 49/92/134
f 67/67/135 50/94/135 49/136/135
f 22/22/63 24/24/63 51/138/63
f 13/13/136 15/15/136 7/98/136
f 1/1/137 8/100/137 7/141/137
f 25/25/66 9/196/66 8/143/66
f 74/74/67 61/104/67 63/145/67
f 30/30/138 29/29/138 62/106/138
f 52/52/139 63/197/139 62/147/139
f 6/6/140 5/5/140 37/110/140
f 28/28/141 38/112/141 37/150/141
f 19/19/72 39/198/72 38/152/72
f 54/54/142 53/53/142 31/116/142
f 34/34/143 32/118/143 31/155/143
f 90/157/75 33/199/75 32/158/75
f 4/4/144 46/46/144 48/48/144
f 26/26/77 47/47/77 46/46/77
f 36/36/145 35/35/145 48/159/145
f 41/41/79 4/4/79 6/6/79
f 66/66/80 65/65/80 5/161/80
f 42/42/81 19/19/81 21/21/81
f 18/18/82 17/17/82 20/163/82
f 12/12/83 81/195/83 78/81/83
f 93/165/84 76/76/84 80/132/84
f 56/56/85 96/170/85 34/34/85
f 66/66/86 35/200/86 89/166/86
f 55/55/87 57/57/87 1/1/87
f 94/167/88 2/2/88 83/142/88
f 16/16/89 18/18/89 28/28/89
f 95/168/90 29/29/90 87/151/90
f 91/169/91 90/157/91 22/22/91
f 96/170/92 55/55/92 24/171/92
f 60/60/93 59/59/93 67/67/93
f 10/10/94 68/68/94 82/137/94
f 41/41/95 85/178/95 25/25/95
f 56/56/96 26/201/96 84/173/96
f 58/58/97 52/52/97 54/54/97
f 95/168/98 64/64/98 53/174/98
f 58/58/99 60/60/99 73/73/99
f 93/165/146 16/16/146 74/176/146
f 40/40/101 79/84/101 13/13/101
f 11/11/102 15/15/102 14/14/102
f 78/81/103 81/195/103 80/132/103
